<?xml version="1.0" encoding="UTF-8" standalone="no"?>
<!DOCTYPE svg PUBLIC "-//W3C//DTD SVG 1.1//EN"
 "http://www.w3.org/Graphics/SVG/1.1/DTD/svg11.dtd">
<!-- Generated by graphviz version 2.43.0 (0)
 -->
<!-- Title: nfa Pages: 1 -->
<svg width="342pt" height="125pt"
 viewBox="0.00 0.00 342.07 125.21" xmlns="http://www.w3.org/2000/svg" xmlns:xlink="http://www.w3.org/1999/xlink">
<g id="graph0" class="graph" transform="scale(1 1) rotate(0) translate(4 121.21)">
<title>nfa</title>
<polygon fill="white" stroke="transparent" points="-4,4 -4,-121.21 338.07,-121.21 338.07,4 -4,4"/>
<!-- start -->
<g id="node1" class="node">
<title>start</title>
</g>
<!-- 0 -->
<g id="node4" class="node">
<title>0</title>
<ellipse fill="none" stroke="black" cx="48.61" cy="-16.61" rx="10.71" ry="10.71"/>
<text text-anchor="middle" x="48.61" y="-12.91" font-family="Times,serif" font-size="14.00">0</text>
</g>
<!-- start&#45;&gt;0 -->
<g id="edge12" class="edge">
<title>start&#45;&gt;0</title>
<path fill="none" stroke="black" d="M1.13,-16.61C2.59,-16.61 15.67,-16.61 27.58,-16.61"/>
<polygon fill="black" stroke="black" points="27.82,-20.11 37.82,-16.61 27.82,-13.11 27.82,-20.11"/>
</g>
<!-- 4 -->
<g id="node2" class="node">
<title>4</title>
<ellipse fill="none" stroke="black" cx="319.46" cy="-61.61" rx="10.68" ry="10.68"/>
<ellipse fill="none" stroke="black" cx="319.46" cy="-61.61" rx="14.71" ry="14.71"/>
<text text-anchor="middle" x="319.46" y="-57.91" font-family="Times,serif" font-size="14.00">4</text>
</g>
<!-- 5 -->
<g id="node3" class="node">
<title>5</title>
<ellipse fill="none" stroke="black" cx="319.46" cy="-14.61" rx="10.68" ry="10.68"/>
<ellipse fill="none" stroke="black" cx="319.46" cy="-14.61" rx="14.71" ry="14.71"/>
<text text-anchor="middle" x="319.46" y="-10.91" font-family="Times,serif" font-size="14.00">5</text>
</g>
<!-- 1 -->
<g id="node5" class="node">
<title>1</title>
<ellipse fill="none" stroke="black" cx="114.82" cy="-73.61" rx="10.71" ry="10.71"/>
<text text-anchor="middle" x="114.82" y="-69.91" font-family="Times,serif" font-size="14.00">1</text>
</g>
<!-- 0&#45;&gt;1 -->
<g id="edge1" class="edge">
<title>0&#45;&gt;1</title>
<path fill="none" stroke="black" d="M56.97,-23.15C67.03,-32.07 85.29,-48.28 98.4,-59.92"/>
<polygon fill="black" stroke="black" points="96.34,-62.77 106.14,-66.79 100.99,-57.54 96.34,-62.77"/>
<text text-anchor="middle" x="81.71" y="-51.41" font-family="Times,serif" font-size="14.00">a</text>
</g>
<!-- 2 -->
<g id="node6" class="node">
<title>2</title>
<ellipse fill="none" stroke="black" cx="182.03" cy="-37.61" rx="10.71" ry="10.71"/>
<text text-anchor="middle" x="182.03" y="-33.91" font-family="Times,serif" font-size="14.00">2</text>
</g>
<!-- 0&#45;&gt;2 -->
<g id="edge2" class="edge">
<title>0&#45;&gt;2</title>
<path fill="none" stroke="black" d="M59.48,-18.19C81.09,-21.64 132.89,-29.91 161.4,-34.47"/>
<polygon fill="black" stroke="black" points="160.97,-37.95 171.4,-36.07 162.07,-31.03 160.97,-37.95"/>
<text text-anchor="middle" x="114.82" y="-31.41" font-family="Times,serif" font-size="14.00">b</text>
</g>
<!-- 3 -->
<g id="node7" class="node">
<title>3</title>
<ellipse fill="none" stroke="black" cx="248.25" cy="-37.61" rx="10.71" ry="10.71"/>
<text text-anchor="middle" x="248.25" y="-33.91" font-family="Times,serif" font-size="14.00">3</text>
</g>
<!-- 0&#45;&gt;3 -->
<g id="edge3" class="edge">
<title>0&#45;&gt;3</title>
<path fill="none" stroke="black" d="M59.16,-15.18C82.42,-12.04 143.66,-5.68 192.64,-17.61 205,-20.62 218.42,-25.51 228.86,-29.7"/>
<polygon fill="black" stroke="black" points="227.59,-32.96 238.17,-33.56 230.27,-26.5 227.59,-32.96"/>
<text text-anchor="middle" x="148.43" y="-16.41" font-family="Times,serif" font-size="14.00">a</text>
</g>
<!-- 1&#45;&gt;1 -->
<g id="edge5" class="edge">
<title>1&#45;&gt;1</title>
<path fill="none" stroke="black" d="M109.97,-83.28C107.45,-92.36 109.07,-102.21 114.82,-102.21 118.41,-102.21 120.39,-98.36 120.76,-93.26"/>
<polygon fill="black" stroke="black" points="124.23,-92.84 119.67,-83.28 117.27,-93.6 124.23,-92.84"/>
<text text-anchor="middle" x="114.82" y="-106.01" font-family="Times,serif" font-size="14.00">a</text>
</g>
<!-- 1&#45;&gt;2 -->
<g id="edge6" class="edge">
<title>1&#45;&gt;2</title>
<path fill="none" stroke="black" d="M123,-66.36C128.28,-61.37 135.82,-54.9 143.43,-50.61 148.99,-47.47 155.44,-44.9 161.42,-42.9"/>
<polygon fill="black" stroke="black" points="162.79,-46.14 171.36,-39.91 160.77,-39.44 162.79,-46.14"/>
<text text-anchor="middle" x="148.43" y="-54.41" font-family="Times,serif" font-size="14.00">b</text>
</g>
<!-- 1&#45;&gt;3 -->
<g id="edge4" class="edge">
<title>1&#45;&gt;3</title>
<path fill="none" stroke="black" d="M124.19,-78.86C129.5,-81.93 136.63,-85.59 143.43,-87.61 164.44,-93.83 172.33,-98.84 192.64,-90.61 210.57,-83.34 225.86,-67.04 235.66,-54.42"/>
<polygon fill="black" stroke="black" points="238.69,-56.2 241.78,-46.07 233.05,-52.06 238.69,-56.2"/>
<text text-anchor="middle" x="182.03" y="-98.41" font-family="Times,serif" font-size="14.00">a</text>
</g>
<!-- 2&#45;&gt;1 -->
<g id="edge8" class="edge">
<title>2&#45;&gt;1</title>
<path fill="none" stroke="black" d="M175.17,-45.76C170.13,-52.15 162.29,-60.75 153.43,-65.61 148.01,-68.57 141.6,-70.44 135.62,-71.61"/>
<polygon fill="black" stroke="black" points="135.02,-68.17 125.63,-73.07 136.03,-75.09 135.02,-68.17"/>
<text text-anchor="middle" x="148.43" y="-72.41" font-family="Times,serif" font-size="14.00">a</text>
</g>
<!-- 2&#45;&gt;2 -->
<g id="edge9" class="edge">
<title>2&#45;&gt;2</title>
<path fill="none" stroke="black" d="M177.18,-47.28C174.67,-56.36 176.28,-66.21 182.03,-66.21 185.63,-66.21 187.61,-62.36 187.97,-57.26"/>
<polygon fill="black" stroke="black" points="191.45,-56.84 186.88,-47.28 184.49,-57.6 191.45,-56.84"/>
<text text-anchor="middle" x="182.03" y="-70.01" font-family="Times,serif" font-size="14.00">b</text>
</g>
<!-- 2&#45;&gt;3 -->
<g id="edge7" class="edge">
<title>2&#45;&gt;3</title>
<path fill="none" stroke="black" d="M192.79,-37.61C201.93,-37.61 215.88,-37.61 227.37,-37.61"/>
<polygon fill="black" stroke="black" points="227.4,-41.11 237.4,-37.61 227.4,-34.11 227.4,-41.11"/>
<text text-anchor="middle" x="215.14" y="-41.41" font-family="Times,serif" font-size="14.00">a</text>
</g>
<!-- 3&#45;&gt;4 -->
<g id="edge10" class="edge">
<title>3&#45;&gt;4</title>
<path fill="none" stroke="black" d="M258.58,-40.84C268.13,-44.15 283.33,-49.42 296.02,-53.83"/>
<polygon fill="black" stroke="black" points="294.91,-57.15 305.51,-57.12 297.21,-50.53 294.91,-57.15"/>
<text text-anchor="middle" x="281.85" y="-53.41" font-family="Times,serif" font-size="14.00">a</text>
</g>
<!-- 3&#45;&gt;5 -->
<g id="edge11" class="edge">
<title>3&#45;&gt;5</title>
<path fill="none" stroke="black" d="M258.25,-32.79C263.55,-30.11 270.46,-26.86 276.85,-24.61 282.55,-22.61 288.82,-20.87 294.73,-19.43"/>
<polygon fill="black" stroke="black" points="295.78,-22.78 304.77,-17.16 294.24,-15.95 295.78,-22.78"/>
<text text-anchor="middle" x="281.85" y="-28.41" font-family="Times,serif" font-size="14.00">b</text>
</g>
</g>
</svg>
